<svg xmlns="http://www.w3.org/2000/svg" xmlns:xlink="http://www.w3.org/1999/xlink" width="1920" zoomAndPan="magnify" viewBox="0 0 1440 809.999993" height="1080" preserveAspectRatio="xMidYMid meet" version="1.0"><defs><clipPath id="ae8819aec6"><path d="M 372.472656 28.136719 L 947 28.136719 L 947 781.886719 L 372.472656 781.886719 Z M 372.472656 28.136719 " clip-rule="nonzero"/></clipPath></defs><g clip-path="url(#ae8819aec6)"><path fill="#fff7ed" d="M 911.726562 233.21875 L 911.050781 272.765625 L 941.636719 299.296875 C 949.070312 305.886719 946.875 318.5625 936.398438 321.601562 L 898.207031 333.261719 L 882.488281 370.609375 C 878.433594 380.242188 865.421875 381.085938 859.84375 372.808594 L 836.691406 339.683594 L 796.304688 336.136719 C 785.996094 335.292969 780.757812 323.460938 787.515625 315.011719 L 811.511719 283.242188 L 802.386719 243.867188 C 800.191406 234.402344 809.316406 224.941406 819.960938 229.164062 L 857.480469 242.007812 L 892.292969 221.054688 C 901.246094 215.476562 912.570312 222.742188 911.726562 233.21875 Z M 885.023438 278.339844 L 885.53125 255.1875 L 865.589844 267.1875 C 862.378906 269.046875 858.492188 269.554688 854.773438 268.371094 L 832.804688 260.765625 L 837.875 282.902344 C 838.890625 286.621094 838.214844 290.675781 835.679688 294.058594 L 821.652344 312.476562 L 844.636719 314.503906 C 848.351562 314.84375 851.902344 316.703125 854.097656 319.914062 L 867.449219 339.007812 L 876.40625 317.714844 C 877.757812 314.335938 880.628906 311.464844 884.515625 310.449219 L 906.824219 303.691406 L 889.25 288.480469 C 886.714844 285.945312 885.023438 282.226562 885.023438 278.339844 Z M 474.039062 350.5 L 426.890625 268.707031 C 421.988281 270.230469 416.917969 271.242188 411.847656 271.582031 L 460.351562 355.738281 C 464.914062 354.21875 469.476562 352.527344 474.039062 350.5 Z M 449.027344 255.695312 L 496.34375 337.488281 C 500.402344 334.613281 504.117188 331.574219 507.667969 328.195312 L 459.167969 244.035156 C 456.125 248.429688 452.914062 252.316406 449.027344 255.695312 Z M 462.207031 202.125 C 464.574219 203.308594 466.433594 205.167969 467.617188 207.363281 L 534.875 323.800781 C 537.746094 328.871094 536.902344 334.953125 533.355469 338.839844 C 523.722656 349.488281 511.554688 359.117188 498.371094 366.722656 C 485.191406 374.328125 470.996094 379.90625 456.800781 382.945312 C 451.054688 384.128906 445.308594 381.257812 442.605469 376.355469 L 375.515625 260.089844 C 374.164062 257.722656 373.828125 255.527344 373.828125 253.160156 L 372.644531 171.371094 C 372.472656 161.230469 383.628906 154.976562 392.246094 160.214844 Z M 399.34375 244.710938 C 408.300781 246.910156 417.59375 245.726562 425.707031 240.996094 C 433.648438 236.261719 439.5625 228.828125 442.097656 220.039062 L 398.667969 194.183594 Z M 522.707031 679.1875 L 524.90625 679.1875 L 524.90625 623.421875 C 451.054688 578.808594 411.847656 493.972656 426.214844 408.125 C 427.226562 401.875 432.804688 397.3125 438.886719 397.3125 L 828.242188 397.3125 C 835.003906 397.3125 840.410156 402.378906 841.085938 408.972656 C 842.4375 418.265625 842.777344 419.109375 843.453125 430.265625 C 843.960938 438.714844 843.960938 444.964844 843.621094 453.414062 C 843.453125 455.273438 843.453125 457.132812 843.285156 458.992188 L 893.644531 534.871094 C 898.542969 542.304688 894.65625 552.105469 886.207031 554.472656 L 842.4375 566.132812 L 842.4375 640.488281 C 842.4375 647.585938 836.691406 653.5 829.59375 653.5 L 715.019531 653.5 L 715.019531 679.019531 L 720.257812 679.019531 C 748.480469 679.019531 771.460938 702 771.460938 730.222656 L 771.460938 768.414062 C 771.460938 775.511719 765.714844 781.425781 758.617188 781.425781 L 495.5 781.425781 C 488.402344 781.425781 482.65625 775.683594 482.65625 768.414062 L 482.65625 719.40625 C 482.488281 697.269531 500.570312 679.1875 522.707031 679.1875 Z M 720.089844 705.210938 L 522.707031 705.210938 C 514.933594 705.210938 508.511719 711.632812 508.511719 719.40625 L 508.511719 755.910156 L 745.4375 755.910156 L 745.4375 730.5625 C 745.4375 716.535156 733.945312 705.210938 720.089844 705.210938 Z M 817.765625 431.953125 C 817.597656 429.25 817.257812 426.378906 816.921875 423.335938 L 450.042969 423.335938 C 445.816406 463.722656 454.605469 503.269531 474.375 536.898438 C 490.9375 564.949219 514.765625 588.269531 543.15625 604.324219 C 547.550781 606.351562 550.761719 610.914062 550.761719 616.15625 L 550.761719 679.355469 L 689.164062 679.355469 L 689.164062 640.996094 C 689.164062 633.898438 694.910156 628.152344 702.007812 628.152344 L 816.414062 628.152344 L 816.414062 556.839844 C 816.414062 551.09375 820.300781 545.855469 826.046875 544.332031 L 862.042969 534.699219 L 819.117188 469.976562 C 815.738281 464.90625 817.257812 459.667969 817.765625 452.738281 Z M 800.191406 179.144531 C 807.289062 179.144531 813.035156 184.890625 813.035156 191.988281 C 813.035156 199.085938 807.289062 204.828125 800.191406 204.828125 L 767.914062 204.828125 C 760.816406 204.828125 755.070312 199.085938 755.070312 191.988281 C 755.070312 184.890625 760.816406 179.144531 767.914062 179.144531 Z M 499.046875 205 C 491.949219 205 486.035156 199.253906 486.035156 192.15625 C 486.035156 185.058594 491.78125 179.3125 499.046875 179.3125 L 531.324219 179.3125 C 538.421875 179.3125 544.167969 185.058594 544.167969 192.15625 C 544.167969 199.253906 538.421875 205 531.324219 205 Z M 534.03125 94.648438 C 528.960938 89.578125 528.960938 81.464844 534.03125 76.398438 C 539.101562 71.328125 547.210938 71.328125 552.28125 76.398438 L 575.09375 99.210938 C 580.164062 104.28125 580.164062 112.390625 575.09375 117.460938 C 570.023438 122.53125 561.914062 122.53125 556.84375 117.460938 Z M 636.777344 41.414062 C 636.777344 34.316406 642.523438 28.574219 649.621094 28.574219 C 656.71875 28.574219 662.464844 34.316406 662.464844 41.414062 L 662.464844 73.691406 C 662.464844 80.789062 656.71875 86.535156 649.621094 86.535156 C 642.523438 86.535156 636.777344 80.789062 636.777344 73.691406 Z M 746.957031 76.398438 C 752.027344 71.328125 760.140625 71.328125 765.210938 76.398438 C 770.28125 81.464844 770.28125 89.578125 765.210938 94.648438 L 742.394531 117.460938 C 737.328125 122.53125 729.214844 122.53125 724.144531 117.460938 C 719.074219 112.390625 719.074219 104.28125 724.144531 99.210938 Z M 706.738281 255.695312 C 722.960938 269.382812 720.597656 307.746094 698.796875 313.660156 C 672.09375 366.722656 626.976562 366.722656 600.273438 313.660156 C 578.472656 307.578125 576.109375 269.046875 592.5 255.527344 C 590.304688 252.316406 587.9375 249.445312 585.570312 246.570312 C 575.09375 234.066406 564.785156 221.730469 564.785156 191.480469 C 564.785156 144.667969 602.808594 106.644531 649.621094 106.644531 C 696.429688 106.644531 734.453125 144.667969 734.453125 191.480469 C 734.453125 221.898438 724.144531 234.234375 713.667969 246.910156 C 711.300781 249.78125 708.9375 252.484375 706.738281 255.695312 Z M 668.378906 314.503906 L 630.863281 314.503906 C 643.535156 331.910156 655.535156 331.910156 668.378906 314.503906 Z M 692.710938 276.652344 L 606.527344 276.652344 C 605.007812 276.652344 608.386719 277.328125 608.21875 278.003906 C 607.542969 280.707031 607.542969 284.425781 608.21875 287.128906 C 608.386719 287.804688 605.007812 288.480469 606.527344 288.480469 L 692.710938 288.480469 C 694.234375 288.480469 690.683594 287.804688 691.023438 287.128906 C 691.699219 284.425781 691.699219 280.539062 691.023438 278.003906 C 690.683594 277.328125 694.234375 276.652344 692.710938 276.652344 Z M 691.191406 149.90625 C 668.207031 126.925781 630.863281 126.925781 607.878906 149.90625 C 597.234375 160.554688 590.640625 175.257812 590.640625 191.480469 C 590.640625 224.433594 608.21875 226.96875 619.539062 250.796875 L 679.871094 250.796875 C 691.191406 227.304688 708.597656 224.433594 708.597656 191.480469 C 708.597656 175.257812 702.007812 160.386719 691.191406 149.90625 Z M 691.191406 149.90625 " fill-opacity="1" fill-rule="nonzero"/></g></svg>