<svg xmlns="http://www.w3.org/2000/svg" xmlns:xlink="http://www.w3.org/1999/xlink" width="1920" zoomAndPan="magnify" viewBox="0 0 1440 809.999993" height="1080" preserveAspectRatio="xMidYMid meet" version="1.0"><defs><clipPath id="0d1d96e0d9"><path d="M 444.292969 102.023438 L 889.792969 102.023438 L 889.792969 676.523438 L 444.292969 676.523438 Z M 444.292969 102.023438 " clip-rule="nonzero"/></clipPath></defs><g clip-path="url(#0d1d96e0d9)"><path fill="#fff7ed" d="M 841.859375 324.066406 L 841.859375 276.925781 C 841.859375 180.503906 763.382812 102.023438 666.960938 102.023438 C 570.539062 102.023438 492.023438 180.484375 492.023438 276.925781 L 492.023438 324.066406 C 465.617188 324.78125 444.402344 346.292969 444.402344 372.875 L 444.402344 627.65625 C 444.402344 629.261719 444.480469 630.859375 444.636719 632.453125 C 444.792969 634.050781 445.027344 635.632812 445.339844 637.207031 C 445.65625 638.777344 446.042969 640.332031 446.507812 641.863281 C 446.972656 643.398438 447.511719 644.90625 448.125 646.386719 C 448.738281 647.867188 449.421875 649.316406 450.179688 650.730469 C 450.933594 652.144531 451.757812 653.515625 452.648438 654.847656 C 453.539062 656.183594 454.492188 657.46875 455.507812 658.707031 C 456.527344 659.945312 457.601562 661.132812 458.734375 662.265625 C 459.867188 663.398438 461.054688 664.476562 462.292969 665.492188 C 463.53125 666.507812 464.816406 667.460938 466.148438 668.351562 C 467.484375 669.242188 468.855469 670.066406 470.269531 670.824219 C 471.683594 671.578125 473.128906 672.261719 474.609375 672.875 C 476.09375 673.492188 477.597656 674.03125 479.132812 674.496094 C 480.667969 674.960938 482.21875 675.351562 483.792969 675.664062 C 485.363281 675.976562 486.949219 676.210938 488.542969 676.367188 C 490.136719 676.523438 491.738281 676.605469 493.339844 676.605469 L 840.550781 676.605469 C 842.15625 676.605469 843.753906 676.523438 845.347656 676.367188 C 846.945312 676.210938 848.527344 675.976562 850.101562 675.664062 C 851.671875 675.351562 853.226562 674.960938 854.757812 674.496094 C 856.292969 674.03125 857.800781 673.492188 859.28125 672.878906 C 860.761719 672.265625 862.210938 671.582031 863.625 670.824219 C 865.039062 670.070312 866.410156 669.246094 867.742188 668.355469 C 869.074219 667.464844 870.363281 666.511719 871.601562 665.496094 C 872.839844 664.476562 874.027344 663.402344 875.160156 662.269531 C 876.292969 661.136719 877.367188 659.949219 878.386719 658.710938 C 879.402344 657.472656 880.355469 656.1875 881.246094 654.851562 C 882.136719 653.519531 882.960938 652.148438 883.71875 650.734375 C 884.472656 649.320312 885.15625 647.871094 885.769531 646.390625 C 886.382812 644.910156 886.921875 643.402344 887.390625 641.867188 C 887.855469 640.335938 888.242188 638.78125 888.554688 637.210938 C 888.871094 635.636719 889.105469 634.054688 889.261719 632.457031 C 889.417969 630.863281 889.496094 629.265625 889.496094 627.660156 L 889.496094 372.875 C 889.496094 346.289062 868.269531 324.773438 841.859375 324.066406 Z M 706.984375 465.054688 C 706.765625 466.574219 705.914062 470.035156 705.835938 470.300781 C 702.847656 480.652344 695.707031 489.152344 686.433594 494.328125 L 702.144531 561.308594 C 702.257812 561.652344 702.351562 562.003906 702.425781 562.359375 C 702.496094 562.710938 702.550781 563.070312 702.582031 563.433594 C 702.609375 563.792969 702.621094 564.15625 702.609375 564.519531 C 702.597656 564.878906 702.566406 565.242188 702.511719 565.597656 C 702.457031 565.957031 702.382812 566.3125 702.289062 566.660156 C 702.195312 567.011719 702.078125 567.355469 701.945312 567.691406 C 701.808594 568.027344 701.65625 568.355469 701.480469 568.675781 C 701.308594 568.992188 701.117188 569.300781 700.90625 569.597656 C 700.699219 569.890625 700.472656 570.175781 700.230469 570.445312 C 699.988281 570.714844 699.730469 570.96875 699.460938 571.210938 C 699.1875 571.449219 698.902344 571.671875 698.605469 571.878906 C 698.304688 572.085938 697.996094 572.273438 697.675781 572.445312 C 697.359375 572.613281 697.027344 572.765625 696.691406 572.898438 C 696.351562 573.03125 696.007812 573.140625 695.660156 573.234375 C 695.308594 573.324219 694.953125 573.394531 694.59375 573.445312 C 694.234375 573.496094 693.875 573.527344 693.511719 573.535156 L 641.453125 573.535156 C 641.089844 573.527344 640.726562 573.496094 640.367188 573.445312 C 640.011719 573.398438 639.65625 573.324219 639.304688 573.234375 C 638.953125 573.140625 638.609375 573.03125 638.273438 572.898438 C 637.933594 572.765625 637.605469 572.613281 637.285156 572.445312 C 636.964844 572.273438 636.65625 572.085938 636.359375 571.878906 C 636.058594 571.671875 635.773438 571.449219 635.503906 571.210938 C 635.230469 570.96875 634.972656 570.714844 634.730469 570.445312 C 634.488281 570.175781 634.265625 569.890625 634.054688 569.597656 C 633.847656 569.300781 633.65625 568.992188 633.480469 568.675781 C 633.308594 568.355469 633.15625 568.027344 633.019531 567.691406 C 632.886719 567.355469 632.769531 567.011719 632.675781 566.660156 C 632.582031 566.3125 632.507812 565.957031 632.453125 565.597656 C 632.398438 565.238281 632.367188 564.878906 632.355469 564.515625 C 632.34375 564.15625 632.355469 563.792969 632.386719 563.433594 C 632.417969 563.070312 632.46875 562.710938 632.542969 562.355469 C 632.613281 562.003906 632.707031 561.652344 632.820312 561.308594 L 647.464844 494.328125 C 638.1875 489.152344 631.046875 480.652344 628.0625 470.300781 C 627.984375 470.035156 627.128906 466.574219 626.914062 465.054688 C 626.636719 463.1875 626.5 461.304688 626.496094 459.417969 C 626.496094 458.089844 626.5625 456.769531 626.691406 455.449219 C 626.820312 454.132812 627.015625 452.824219 627.273438 451.523438 C 627.53125 450.222656 627.851562 448.9375 628.234375 447.671875 C 628.621094 446.402344 629.066406 445.15625 629.574219 443.933594 C 630.078125 442.707031 630.644531 441.511719 631.269531 440.34375 C 631.894531 439.171875 632.574219 438.039062 633.308594 436.9375 C 634.046875 435.835938 634.832031 434.769531 635.675781 433.746094 C 636.515625 432.722656 637.402344 431.742188 638.339844 430.804688 C 639.277344 429.867188 640.257812 428.976562 641.28125 428.136719 C 642.304688 427.296875 643.367188 426.507812 644.46875 425.769531 C 645.570312 425.035156 646.707031 424.355469 647.875 423.730469 C 649.042969 423.105469 650.242188 422.539062 651.464844 422.03125 C 652.6875 421.523438 653.933594 421.078125 655.203125 420.695312 C 656.472656 420.308594 657.753906 419.988281 659.054688 419.726562 C 660.355469 419.46875 661.664062 419.277344 662.980469 419.144531 C 664.300781 419.015625 665.621094 418.949219 666.949219 418.949219 C 668.273438 418.949219 669.59375 419.015625 670.914062 419.144531 C 672.230469 419.277344 673.542969 419.46875 674.839844 419.730469 C 676.140625 419.988281 677.425781 420.308594 678.691406 420.695312 C 679.960938 421.078125 681.207031 421.523438 682.429688 422.03125 C 683.65625 422.539062 684.851562 423.105469 686.019531 423.730469 C 687.1875 424.355469 688.324219 425.035156 689.425781 425.769531 C 690.527344 426.507812 691.589844 427.296875 692.613281 428.136719 C 693.636719 428.976562 694.621094 429.867188 695.554688 430.804688 C 696.492188 431.742188 697.382812 432.722656 698.222656 433.746094 C 699.0625 434.769531 699.851562 435.835938 700.585938 436.9375 C 701.320312 438.039062 702.003906 439.171875 702.625 440.34375 C 703.25 441.511719 703.816406 442.707031 704.324219 443.933594 C 704.832031 445.15625 705.277344 446.402344 705.660156 447.671875 C 706.042969 448.9375 706.367188 450.222656 706.625 451.523438 C 706.882812 452.824219 707.074219 454.132812 707.203125 455.449219 C 707.332031 456.769531 707.398438 458.089844 707.398438 459.417969 C 707.394531 461.304688 707.257812 463.1875 706.984375 465.054688 Z M 782.136719 323.929688 L 551.75 323.929688 L 551.75 276.925781 C 551.75 213.394531 603.410156 161.714844 666.960938 161.714844 C 730.507812 161.714844 782.136719 213.394531 782.136719 276.925781 Z M 782.136719 323.929688 " fill-opacity="1" fill-rule="nonzero"/></g></svg>