<svg xmlns="http://www.w3.org/2000/svg" xmlns:xlink="http://www.w3.org/1999/xlink" width="1920" zoomAndPan="magnify" viewBox="0 0 1440 809.999993" height="1080" preserveAspectRatio="xMidYMid meet" version="1.0"><defs><clipPath id="41b1facfc9"><path d="M 315.199219 22.859375 L 1023 22.859375 L 1023 787.109375 L 315.199219 787.109375 Z M 315.199219 22.859375 " clip-rule="nonzero"/></clipPath></defs><g clip-path="url(#41b1facfc9)"><path fill="#fff7ed" d="M 923.117188 557.074219 C 866.992188 539.050781 853.289062 499.429688 834.328125 444.59375 C 826.777344 422.746094 806.710938 364.707031 750.304688 364.707031 L 685.757812 364.707031 C 728.84375 355.464844 761.25 317.097656 761.25 271.289062 C 761.25 218.597656 718.386719 175.730469 665.695312 175.730469 C 613.003906 175.730469 570.136719 218.597656 570.136719 271.289062 C 570.136719 317.097656 602.542969 355.464844 645.628906 364.707031 L 587.996094 364.707031 C 531.585938 364.707031 511.523438 422.746094 503.972656 444.59375 C 485.011719 499.429688 471.308594 539.050781 415.183594 557.074219 C 390.964844 564.847656 377.589844 590.871094 385.359375 615.089844 C 391.636719 634.640625 409.800781 647.128906 429.3125 647.125 C 431.195312 647.125 433.09375 646.976562 434.996094 646.738281 C 410.027344 658.5625 392.707031 683.996094 392.707031 713.410156 C 392.707031 754.058594 425.777344 787.132812 466.429688 787.132812 L 857.042969 787.132812 C 897.695312 787.132812 930.769531 754.058594 930.769531 713.410156 C 930.769531 672.757812 897.695312 639.683594 857.042969 639.683594 C 855.996094 639.683594 854.949219 639.820312 853.941406 640.089844 L 794.476562 656.023438 C 775.292969 629.945312 776.101562 602.121094 777.121094 567.523438 C 777.28125 562.011719 777.449219 556.335938 777.539062 550.484375 C 783.324219 561.457031 789.917969 571.972656 797.75 581.863281 C 820.832031 611.003906 851.710938 631.039062 894.917969 644.914062 C 906.652344 648.675781 919.144531 647.648438 930.105469 642.015625 C 941.0625 636.382812 949.171875 626.820312 952.9375 615.089844 C 960.710938 590.871094 947.335938 564.84375 923.117188 557.074219 Z M 594.117188 271.289062 C 594.117188 231.820312 626.226562 199.710938 665.695312 199.710938 C 705.164062 199.710938 737.277344 231.820312 737.277344 271.289062 C 737.277344 310.757812 705.164062 342.871094 665.695312 342.871094 C 626.226562 342.871094 594.117188 310.757812 594.117188 271.289062 Z M 541.300781 659.320312 L 469.535156 640.089844 C 468.523438 639.820312 467.480469 639.683594 466.433594 639.683594 C 463.023438 639.683594 459.671875 639.933594 456.382812 640.386719 C 492.871094 626.777344 519.855469 607.988281 540.550781 581.863281 C 548.382812 571.976562 554.976562 561.457031 560.761719 550.488281 C 560.851562 556.339844 561.019531 562.011719 561.179688 567.523438 C 562.277344 604.796875 563.085938 632.375 541.300781 659.320312 Z M 416.6875 713.40625 C 416.6875 686.476562 438.195312 664.472656 464.9375 663.679688 L 615.417969 704 L 559.746094 718.917969 C 542.992188 723.40625 532.0625 739.761719 534.328125 756.957031 C 534.609375 759.09375 535.082031 761.164062 535.734375 763.152344 L 466.433594 763.152344 C 439 763.15625 416.6875 740.839844 416.6875 713.40625 Z M 858.539062 663.679688 C 885.28125 664.476562 906.792969 686.476562 906.792969 713.410156 C 906.792969 740.839844 884.476562 763.15625 857.042969 763.15625 L 568.726562 763.15625 C 563.28125 763.15625 558.8125 759.238281 558.097656 753.835938 C 557.386719 748.433594 560.691406 743.488281 565.953125 742.082031 Z M 930.109375 607.761719 C 928.300781 613.398438 924.40625 617.988281 919.144531 620.691406 C 913.882812 623.398438 907.882812 623.890625 902.25 622.082031 C 820.546875 595.851562 798.855469 549.527344 775.085938 481.855469 C 772.894531 475.625 766.574219 471.910156 760.070312 473.023438 C 753.554688 474.132812 748.828125 479.730469 748.828125 486.332031 C 748.828125 487.089844 748.902344 487.847656 749.046875 488.59375 C 754.605469 517.519531 753.871094 542.582031 753.15625 566.820312 C 752.171875 600.304688 751.253906 632.191406 770 662.582031 L 661.738281 691.589844 L 566.117188 665.964844 C 587.117188 634.53125 586.167969 601.503906 585.148438 566.816406 C 584.433594 542.578125 583.695312 517.519531 589.257812 488.59375 C 589.402344 487.847656 589.472656 487.089844 589.472656 486.328125 C 589.472656 479.726562 584.746094 474.132812 578.234375 473.019531 C 571.71875 471.910156 565.40625 475.625 563.21875 481.851562 C 539.449219 549.527344 517.753906 595.847656 436.054688 622.082031 C 430.414062 623.890625 424.414062 623.398438 419.15625 620.691406 C 413.894531 617.988281 410 613.394531 408.195312 607.761719 C 406.386719 602.128906 406.878906 596.128906 409.585938 590.867188 C 412.289062 585.601562 416.878906 581.710938 422.515625 579.902344 C 490.054688 558.214844 507.007812 509.191406 526.636719 452.429688 C 541.875 408.34375 560.800781 388.683594 588 388.683594 L 750.304688 388.683594 C 777.503906 388.683594 796.429688 408.34375 811.667969 452.429688 C 831.296875 509.191406 848.25 558.214844 915.789062 579.902344 C 921.425781 581.710938 926.015625 585.601562 928.71875 590.863281 C 931.425781 596.128906 931.917969 602.128906 930.109375 607.761719 Z M 653.707031 109.207031 L 653.707031 34.851562 C 653.707031 28.230469 659.074219 22.863281 665.695312 22.863281 C 672.316406 22.863281 677.683594 28.230469 677.683594 34.851562 L 677.683594 109.207031 C 677.683594 115.828125 672.316406 121.195312 665.695312 121.195312 C 659.074219 121.195312 653.707031 115.828125 653.707031 109.207031 Z M 484.851562 88.371094 C 481.539062 82.636719 483.503906 75.304688 489.238281 71.996094 C 494.976562 68.683594 502.308594 70.652344 505.617188 76.382812 L 542.796875 140.777344 C 546.105469 146.511719 544.140625 153.84375 538.40625 157.152344 C 536.519531 158.242188 534.457031 158.761719 532.425781 158.761719 C 528.28125 158.761719 524.253906 156.613281 522.03125 152.765625 Z M 360.992188 202.773438 C 364.304688 197.035156 371.636719 195.074219 377.371094 198.382812 L 441.765625 235.5625 C 447.496094 238.871094 449.464844 246.207031 446.152344 251.9375 C 443.933594 255.785156 439.902344 257.933594 435.757812 257.933594 C 433.722656 257.933594 431.664062 257.417969 429.777344 256.328125 L 365.378906 219.148438 C 359.644531 215.839844 357.679688 208.507812 360.992188 202.773438 Z M 401.660156 392.140625 L 327.304688 392.140625 C 320.683594 392.140625 315.316406 386.773438 315.316406 380.152344 C 315.316406 373.53125 320.683594 368.164062 327.304688 368.164062 L 401.660156 368.164062 C 408.28125 368.164062 413.648438 373.53125 413.648438 380.152344 C 413.648438 386.773438 408.28125 392.140625 401.660156 392.140625 Z M 789.519531 137.320312 L 826.699219 72.925781 C 830.007812 67.191406 837.34375 65.226562 843.078125 68.539062 C 848.808594 71.847656 850.777344 79.179688 847.464844 84.914062 L 810.285156 149.308594 C 808.066406 153.15625 804.035156 155.304688 799.890625 155.304688 C 797.859375 155.304688 795.796875 154.789062 793.910156 153.699219 C 788.171875 150.386719 786.210938 143.054688 789.519531 137.320312 Z M 888.695312 245.953125 C 885.382812 240.21875 887.347656 232.886719 893.082031 229.578125 L 957.476562 192.398438 C 963.214844 189.089844 970.542969 191.054688 973.851562 196.785156 C 977.164062 202.519531 975.199219 209.851562 969.464844 213.164062 L 905.070312 250.339844 C 903.183594 251.429688 901.121094 251.949219 899.085938 251.949219 C 894.941406 251.949219 890.914062 249.796875 888.695312 245.953125 Z M 1022.988281 373.242188 C 1022.988281 379.863281 1017.617188 385.230469 1011 385.230469 L 936.640625 385.230469 C 930.019531 385.230469 924.652344 379.863281 924.652344 373.242188 C 924.652344 366.621094 930.019531 361.253906 936.640625 361.253906 L 1011 361.253906 C 1017.617188 361.253906 1022.988281 366.617188 1022.988281 373.242188 Z M 1022.988281 373.242188 " fill-opacity="1" fill-rule="nonzero"/></g></svg>