<svg xmlns="http://www.w3.org/2000/svg" xmlns:xlink="http://www.w3.org/1999/xlink" width="1920" zoomAndPan="magnify" viewBox="0 0 1440 809.999993" height="1080" preserveAspectRatio="xMidYMid meet" version="1.0"><defs><clipPath id="623f95b23b"><path d="M 72 61.761719 L 1319 61.761719 L 1319 748.011719 L 72 748.011719 Z M 72 61.761719 " clip-rule="nonzero"/></clipPath></defs><g clip-path="url(#623f95b23b)"><path fill="#fff7ed" d="M 680.144531 381.832031 L 680.144531 77.035156 C 680.144531 68.671875 687.007812 61.804688 695.375 61.804688 C 703.738281 61.804688 710.605469 68.671875 710.605469 77.035156 L 710.605469 381.832031 C 710.605469 390.195312 703.738281 397.0625 695.375 397.0625 C 686.796875 397.0625 680.144531 390.195312 680.144531 381.832031 Z M 502.332031 208.089844 L 574.1875 405.855469 C 576.972656 413.792969 585.769531 417.867188 593.703125 414.863281 C 601.640625 412.074219 605.714844 403.28125 602.714844 395.34375 L 530.859375 197.582031 C 528.070312 189.644531 519.273438 185.570312 511.339844 188.574219 C 503.402344 191.574219 499.328125 200.15625 502.332031 208.089844 Z M 483.027344 464.625 C 488.386719 471.0625 498.039062 471.917969 504.476562 466.558594 C 510.910156 461.195312 511.769531 451.542969 506.40625 445.105469 L 310.359375 211.523438 C 304.996094 205.089844 295.34375 204.230469 288.910156 209.59375 C 282.472656 214.957031 281.617188 224.609375 286.976562 231.042969 Z M 235.070312 445.75 L 417.390625 551.066406 C 424.683594 555.355469 433.90625 552.785156 438.195312 545.492188 C 442.488281 538.199219 439.914062 528.972656 432.621094 524.683594 L 250.515625 419.367188 C 243.222656 415.078125 234 417.652344 229.707031 424.945312 C 225.417969 432.238281 227.777344 441.460938 235.070312 445.75 Z M 385.214844 654.667969 C 393.582031 656.167969 401.304688 650.59375 402.804688 642.441406 C 404.304688 634.078125 398.730469 626.355469 390.578125 624.851562 L 90.289062 571.660156 C 81.921875 570.15625 74.199219 575.734375 72.699219 583.886719 C 71.199219 592.25 76.773438 599.972656 84.925781 601.472656 Z M 1318.050781 584.957031 C 1316.550781 576.59375 1308.828125 571.230469 1300.460938 572.515625 L 1000.171875 625.066406 C 991.804688 626.570312 986.441406 634.289062 987.730469 642.65625 C 989.230469 651.023438 997.167969 656.382812 1005.320312 655.097656 L 1305.609375 602.546875 C 1313.976562 601.042969 1319.339844 593.109375 1318.050781 584.957031 Z M 958.128906 525.113281 C 950.835938 529.402344 948.261719 538.625 952.554688 545.917969 C 956.84375 553.210938 966.066406 555.785156 973.359375 551.496094 L 1155.679688 446.609375 C 1162.972656 442.320312 1165.546875 433.097656 1161.257812 425.804688 C 1156.964844 418.511719 1147.742188 415.9375 1140.449219 420.226562 Z M 884.558594 445.320312 C 879.195312 451.757812 880.054688 461.410156 886.488281 466.769531 C 892.925781 472.132812 902.574219 471.277344 907.9375 464.839844 L 1104.199219 231.6875 C 1109.5625 225.25 1108.703125 215.597656 1102.269531 210.238281 C 1095.835938 204.875 1086.183594 205.730469 1080.820312 212.167969 Z M 797.257812 415.078125 C 805.195312 417.867188 813.777344 414.003906 816.777344 406.070312 L 889.0625 208.519531 C 891.851562 200.585938 887.992188 192.003906 880.054688 189 C 872.117188 186.214844 863.539062 190.074219 860.535156 198.011719 L 788.25 395.558594 C 785.246094 403.496094 789.324219 412.074219 797.257812 415.078125 Z M 1178.414062 732.957031 C 1178.414062 741.324219 1171.550781 748.1875 1163.1875 748.1875 L 227.347656 748.1875 C 218.984375 748.1875 212.121094 741.324219 212.121094 732.957031 C 212.121094 724.59375 218.984375 717.730469 227.347656 717.730469 L 445.273438 717.730469 C 444.632812 710.007812 444.203125 702.070312 444.203125 694.136719 C 444.203125 555.785156 556.8125 443.175781 695.160156 443.175781 C 833.507812 443.175781 946.117188 555.785156 946.117188 694.136719 C 946.117188 702.070312 945.6875 710.007812 945.046875 717.730469 L 1162.972656 717.730469 C 1171.550781 717.730469 1178.414062 724.378906 1178.414062 732.957031 Z M 915.875 693.921875 C 915.875 572.085938 817.207031 473.207031 695.160156 473.207031 C 573.328125 473.207031 474.445312 571.875 474.445312 693.921875 C 474.445312 701.855469 474.875 709.792969 475.734375 717.515625 L 914.375 717.515625 C 915.445312 709.792969 915.875 702.070312 915.875 693.921875 Z M 915.875 693.921875 " fill-opacity="1" fill-rule="nonzero"/></g></svg>