<svg xmlns="http://www.w3.org/2000/svg" xmlns:xlink="http://www.w3.org/1999/xlink" width="1920" zoomAndPan="magnify" viewBox="0 0 1440 809.999993" height="1080" preserveAspectRatio="xMidYMid meet" version="1.0"><defs><clipPath id="0e8e472236"><path d="M 314.832031 19.308594 L 1086.582031 19.308594 L 1086.582031 791 L 314.832031 791 Z M 314.832031 19.308594 " clip-rule="nonzero"/></clipPath></defs><g clip-path="url(#0e8e472236)"><path fill="#fff7ed" d="M 709.945312 225.699219 C 710.238281 228.386719 710.589844 231.070312 710.996094 233.742188 C 711.402344 236.417969 711.867188 239.082031 712.386719 241.738281 C 712.90625 244.390625 713.480469 247.035156 714.113281 249.664062 C 714.746094 252.296875 715.433594 254.910156 716.171875 257.511719 C 716.914062 260.113281 717.710938 262.699219 718.5625 265.265625 C 719.414062 267.832031 720.320312 270.382812 721.28125 272.910156 C 722.238281 275.441406 723.25 277.949219 724.316406 280.433594 C 725.382812 282.921875 726.5 285.382812 727.667969 287.824219 C 728.839844 290.261719 730.058594 292.675781 731.332031 295.0625 C 732.601562 297.453125 733.921875 299.8125 735.292969 302.144531 C 736.664062 304.472656 738.085938 306.777344 739.554688 309.046875 C 741.023438 311.320312 742.539062 313.558594 744.101562 315.765625 C 745.667969 317.972656 747.277344 320.148438 748.929688 322.289062 C 750.585938 324.425781 752.285156 326.53125 754.03125 328.597656 C 755.773438 330.664062 757.5625 332.695312 759.390625 334.6875 C 761.222656 336.679688 763.09375 338.632812 765.007812 340.542969 C 766.917969 342.457031 768.871094 344.328125 770.863281 346.160156 C 772.855469 347.988281 774.886719 349.777344 776.953125 351.519531 C 779.019531 353.265625 781.125 354.964844 783.261719 356.621094 C 785.402344 358.277344 787.578125 359.886719 789.785156 361.449219 C 791.992188 363.011719 794.230469 364.527344 796.503906 365.996094 C 798.773438 367.464844 801.074219 368.886719 803.40625 370.257812 C 805.738281 371.628906 808.097656 372.949219 810.488281 374.222656 C 812.875 375.492188 815.289062 376.714844 817.726562 377.882812 C 820.167969 379.050781 822.628906 380.171875 825.117188 381.234375 C 827.601562 382.300781 830.109375 383.3125 832.640625 384.273438 C 835.167969 385.230469 837.71875 386.136719 840.285156 386.988281 C 842.851562 387.839844 845.4375 388.636719 848.039062 389.378906 C 850.640625 390.121094 853.253906 390.808594 855.886719 391.4375 C 858.515625 392.070312 861.160156 392.644531 863.8125 393.164062 C 866.46875 393.6875 869.132812 394.148438 871.804688 394.554688 C 874.480469 394.964844 877.164062 395.3125 879.851562 395.605469 C 932.007812 401.320312 999.328125 405.015625 1086.242188 405.015625 C 999.332031 405.015625 932.007812 408.707031 879.851562 414.425781 C 877.164062 414.71875 874.480469 415.066406 871.804688 415.476562 C 869.132812 415.882812 866.46875 416.34375 863.8125 416.863281 C 861.160156 417.382812 858.515625 417.960938 855.886719 418.589844 C 853.253906 419.222656 850.640625 419.910156 848.039062 420.652344 C 845.4375 421.394531 842.851562 422.191406 840.285156 423.042969 C 837.71875 423.894531 835.167969 424.796875 832.640625 425.757812 C 830.109375 426.71875 827.601562 427.730469 825.117188 428.792969 C 822.628906 429.859375 820.167969 430.976562 817.726562 432.144531 C 815.289062 433.316406 812.875 434.535156 810.488281 435.808594 C 808.097656 437.078125 805.738281 438.402344 803.40625 439.773438 C 801.074219 441.144531 798.773438 442.5625 796.503906 444.03125 C 794.230469 445.5 791.992188 447.015625 789.785156 448.582031 C 787.578125 450.144531 785.402344 451.753906 783.261719 453.410156 C 781.125 455.0625 779.019531 456.765625 776.953125 458.507812 C 774.886719 460.253906 772.855469 462.039062 770.863281 463.871094 C 768.871094 465.699219 766.917969 467.570312 765.007812 469.484375 C 763.09375 471.398438 761.222656 473.351562 759.390625 475.339844 C 757.5625 477.332031 755.773438 479.363281 754.03125 481.429688 C 752.285156 483.5 750.585938 485.601562 748.929688 487.742188 C 747.273438 489.878906 745.664062 492.054688 744.101562 494.261719 C 742.539062 496.46875 741.023438 498.707031 739.554688 500.980469 C 738.085938 503.253906 736.664062 505.554688 735.292969 507.886719 C 733.921875 510.21875 732.601562 512.578125 731.328125 514.964844 C 730.058594 517.351562 728.835938 519.765625 727.667969 522.203125 C 726.5 524.644531 725.382812 527.105469 724.316406 529.59375 C 723.25 532.078125 722.238281 534.585938 721.28125 537.117188 C 720.320312 539.648438 719.414062 542.195312 718.5625 544.761719 C 717.710938 547.332031 716.914062 549.914062 716.171875 552.515625 C 715.429688 555.117188 714.746094 557.734375 714.113281 560.363281 C 713.480469 562.992188 712.90625 565.636719 712.386719 568.292969 C 711.867188 570.945312 711.402344 573.609375 710.996094 576.285156 C 710.589844 578.957031 710.238281 581.640625 709.945312 584.328125 C 704.230469 636.484375 700.535156 703.804688 700.535156 790.71875 C 700.535156 703.808594 696.839844 636.484375 691.128906 584.328125 C 690.835938 581.640625 690.484375 578.957031 690.078125 576.285156 C 689.671875 573.609375 689.207031 570.945312 688.6875 568.292969 C 688.167969 565.636719 687.59375 562.992188 686.960938 560.363281 C 686.328125 557.734375 685.644531 555.117188 684.902344 552.515625 C 684.160156 549.914062 683.363281 547.332031 682.511719 544.761719 C 681.660156 542.195312 680.753906 539.648438 679.792969 537.117188 C 678.835938 534.589844 677.824219 532.082031 676.757812 529.59375 C 675.691406 527.105469 674.574219 524.644531 673.40625 522.203125 C 672.234375 519.765625 671.015625 517.351562 669.742188 514.964844 C 668.472656 512.578125 667.148438 510.21875 665.777344 507.886719 C 664.40625 505.554688 662.988281 503.253906 661.519531 500.980469 C 660.050781 498.710938 658.535156 496.46875 656.96875 494.261719 C 655.40625 492.054688 653.796875 489.882812 652.140625 487.742188 C 650.488281 485.601562 648.785156 483.5 647.042969 481.429688 C 645.296875 479.363281 643.511719 477.332031 641.679688 475.34375 C 639.851562 473.351562 637.980469 471.398438 636.066406 469.484375 C 634.152344 467.570312 632.199219 465.699219 630.207031 463.871094 C 628.21875 462.039062 626.1875 460.253906 624.121094 458.507812 C 622.050781 456.765625 619.949219 455.066406 617.808594 453.410156 C 615.667969 451.753906 613.496094 450.144531 611.289062 448.582031 C 609.082031 447.015625 606.839844 445.5 604.570312 444.03125 C 602.296875 442.5625 599.996094 441.144531 597.664062 439.773438 C 595.332031 438.402344 592.972656 437.078125 590.585938 435.808594 C 588.199219 434.535156 585.785156 433.316406 583.34375 432.148438 C 580.90625 430.976562 578.441406 429.859375 575.957031 428.792969 C 573.46875 427.730469 570.960938 426.71875 568.433594 425.757812 C 565.902344 424.800781 563.355469 423.894531 560.789062 423.042969 C 558.21875 422.191406 555.636719 421.394531 553.035156 420.652344 C 550.433594 419.910156 547.816406 419.222656 545.1875 418.589844 C 542.554688 417.960938 539.914062 417.382812 537.257812 416.863281 C 534.605469 416.34375 531.941406 415.882812 529.265625 415.476562 C 526.589844 415.066406 523.910156 414.71875 521.21875 414.425781 C 469.066406 408.707031 401.742188 405.015625 314.832031 405.015625 C 401.742188 405.015625 469.066406 401.320312 521.21875 395.605469 C 523.910156 395.3125 526.589844 394.960938 529.265625 394.554688 C 531.941406 394.148438 534.605469 393.683594 537.257812 393.164062 C 539.914062 392.644531 542.554688 392.070312 545.1875 391.4375 C 547.816406 390.808594 550.433594 390.121094 553.035156 389.378906 C 555.636719 388.636719 558.21875 387.839844 560.789062 386.988281 C 563.355469 386.136719 565.902344 385.230469 568.433594 384.273438 C 570.960938 383.3125 573.46875 382.300781 575.957031 381.234375 C 578.441406 380.167969 580.90625 379.050781 583.34375 377.882812 C 585.785156 376.714844 588.199219 375.492188 590.585938 374.222656 C 592.972656 372.949219 595.332031 371.628906 597.664062 370.257812 C 599.996094 368.886719 602.296875 367.464844 604.570312 365.996094 C 606.839844 364.527344 609.082031 363.011719 611.289062 361.449219 C 613.496094 359.882812 615.667969 358.273438 617.808594 356.621094 C 619.949219 354.964844 622.050781 353.265625 624.121094 351.519531 C 626.1875 349.777344 628.214844 347.988281 630.207031 346.160156 C 632.199219 344.328125 634.152344 342.457031 636.066406 340.542969 C 637.976562 338.632812 639.851562 336.679688 641.679688 334.6875 C 643.511719 332.695312 645.296875 330.664062 647.042969 328.597656 C 648.785156 326.53125 650.488281 324.425781 652.140625 322.285156 C 653.796875 320.148438 655.40625 317.972656 656.96875 315.765625 C 658.535156 313.558594 660.050781 311.320312 661.519531 309.046875 C 662.988281 306.777344 664.40625 304.472656 665.777344 302.144531 C 667.148438 299.8125 668.472656 297.453125 669.742188 295.0625 C 671.015625 292.675781 672.234375 290.261719 673.40625 287.824219 C 674.574219 285.382812 675.691406 282.921875 676.757812 280.433594 C 677.820312 277.949219 678.835938 275.441406 679.792969 272.910156 C 680.753906 270.382812 681.660156 267.832031 682.511719 265.265625 C 683.359375 262.699219 684.15625 260.113281 684.898438 257.511719 C 685.640625 254.910156 686.328125 252.296875 686.960938 249.664062 C 687.59375 247.035156 688.167969 244.390625 688.6875 241.738281 C 689.207031 239.082031 689.671875 236.417969 690.078125 233.742188 C 690.484375 231.070312 690.835938 228.386719 691.128906 225.699219 C 696.839844 173.542969 700.535156 106.222656 700.535156 19.308594 C 700.535156 106.21875 704.230469 173.542969 709.945312 225.699219 Z M 709.945312 225.699219 " fill-opacity="1" fill-rule="nonzero"/></g></svg>