<svg xmlns="http://www.w3.org/2000/svg" xmlns:xlink="http://www.w3.org/1999/xlink" width="1920" zoomAndPan="magnify" viewBox="0 0 1440 809.999993" height="1080" preserveAspectRatio="xMidYMid meet" version="1.0"><defs><clipPath id="05b78a0957"><path d="M 586.699219 353.363281 L 720.199219 353.363281 L 720.199219 486.863281 L 586.699219 486.863281 Z M 586.699219 353.363281 " clip-rule="nonzero"/></clipPath></defs><g clip-path="url(#05b78a0957)"><path fill="#fff7ed" d="M 654.976562 389.03125 C 655.078125 389.960938 655.21875 390.882812 655.398438 391.800781 C 655.578125 392.71875 655.796875 393.628906 656.054688 394.527344 C 656.3125 395.429688 656.605469 396.316406 656.9375 397.191406 C 657.269531 398.0625 657.636719 398.921875 658.039062 399.765625 C 658.445312 400.609375 658.882812 401.433594 659.359375 402.242188 C 659.832031 403.046875 660.339844 403.832031 660.878906 404.59375 C 661.421875 405.359375 661.992188 406.097656 662.597656 406.8125 C 663.199219 407.527344 663.832031 408.214844 664.492188 408.878906 C 665.15625 409.539062 665.84375 410.171875 666.558594 410.773438 C 667.273438 411.378906 668.011719 411.949219 668.773438 412.488281 C 669.539062 413.03125 670.324219 413.539062 671.128906 414.011719 C 671.933594 414.488281 672.761719 414.925781 673.605469 415.328125 C 674.445312 415.734375 675.304688 416.101562 676.179688 416.433594 C 677.054688 416.765625 677.941406 417.058594 678.839844 417.316406 C 679.742188 417.574219 680.648438 417.792969 681.566406 417.972656 C 682.484375 418.152344 683.410156 418.292969 684.339844 418.394531 C 693.351562 419.378906 704.984375 420.019531 720.003906 420.019531 C 704.988281 420.019531 693.351562 420.65625 684.339844 421.644531 C 683.410156 421.746094 682.484375 421.886719 681.566406 422.066406 C 680.648438 422.246094 679.742188 422.464844 678.839844 422.722656 C 677.941406 422.976562 677.054688 423.273438 676.179688 423.601562 C 675.304688 423.933594 674.445312 424.304688 673.605469 424.707031 C 672.761719 425.113281 671.933594 425.550781 671.128906 426.023438 C 670.324219 426.5 669.539062 427.007812 668.773438 427.546875 C 668.011719 428.085938 667.273438 428.660156 666.558594 429.261719 C 665.84375 429.867188 665.15625 430.5 664.492188 431.160156 C 663.832031 431.820312 663.199219 432.507812 662.597656 433.222656 C 661.992188 433.9375 661.421875 434.679688 660.878906 435.441406 C 660.339844 436.203125 659.832031 436.988281 659.359375 437.796875 C 658.882812 438.601562 658.445312 439.425781 658.039062 440.269531 C 657.636719 441.113281 657.269531 441.972656 656.9375 442.847656 C 656.605469 443.722656 656.3125 444.609375 656.054688 445.507812 C 655.796875 446.40625 655.578125 447.316406 655.398438 448.234375 C 655.21875 449.152344 655.078125 450.074219 654.976562 451.007812 C 653.992188 460.019531 653.351562 471.652344 653.351562 486.671875 C 653.351562 471.652344 652.714844 460.019531 651.726562 451.007812 C 651.625 450.074219 651.484375 449.152344 651.304688 448.234375 C 651.125 447.316406 650.90625 446.40625 650.648438 445.507812 C 650.394531 444.609375 650.097656 443.722656 649.769531 442.847656 C 649.4375 441.972656 649.066406 441.113281 648.664062 440.269531 C 648.257812 439.425781 647.820312 438.601562 647.34375 437.796875 C 646.871094 436.988281 646.363281 436.203125 645.824219 435.441406 C 645.28125 434.679688 644.710938 433.9375 644.109375 433.222656 C 643.503906 432.507812 642.871094 431.820312 642.210938 431.160156 C 641.550781 430.5 640.863281 429.867188 640.148438 429.261719 C 639.429688 428.660156 638.691406 428.085938 637.929688 427.546875 C 637.164062 427.007812 636.382812 426.5 635.574219 426.023438 C 634.769531 425.550781 633.945312 425.113281 633.101562 424.707031 C 632.257812 424.304688 631.398438 423.933594 630.523438 423.601562 C 629.648438 423.273438 628.761719 422.976562 627.863281 422.722656 C 626.960938 422.464844 626.054688 422.246094 625.136719 422.066406 C 624.21875 421.886719 623.292969 421.746094 622.363281 421.644531 C 613.351562 420.65625 601.71875 420.019531 586.699219 420.019531 C 601.71875 420.019531 613.351562 419.378906 622.363281 418.394531 C 623.292969 418.292969 624.21875 418.152344 625.136719 417.972656 C 626.054688 417.792969 626.960938 417.574219 627.863281 417.316406 C 628.761719 417.058594 629.648438 416.765625 630.523438 416.433594 C 631.398438 416.101562 632.257812 415.734375 633.101562 415.328125 C 633.945312 414.925781 634.769531 414.484375 635.574219 414.011719 C 636.382812 413.539062 637.164062 413.03125 637.929688 412.488281 C 638.691406 411.949219 639.429688 411.378906 640.148438 410.773438 C 640.863281 410.171875 641.550781 409.539062 642.210938 408.878906 C 642.871094 408.214844 643.503906 407.527344 644.109375 406.8125 C 644.710938 406.097656 645.28125 405.359375 645.824219 404.59375 C 646.363281 403.832031 646.871094 403.046875 647.34375 402.242188 C 647.820312 401.433594 648.257812 400.609375 648.664062 399.765625 C 649.066406 398.921875 649.4375 398.0625 649.765625 397.191406 C 650.097656 396.316406 650.394531 395.429688 650.648438 394.527344 C 650.90625 393.628906 651.125 392.71875 651.304688 391.800781 C 651.484375 390.882812 651.625 389.960938 651.726562 389.03125 C 652.714844 380.019531 653.351562 368.382812 653.351562 353.363281 C 653.351562 368.382812 653.992188 380.019531 654.976562 389.03125 Z M 654.976562 389.03125 " fill-opacity="1" fill-rule="nonzero"/></g></svg>