<svg xmlns="http://www.w3.org/2000/svg" xmlns:xlink="http://www.w3.org/1999/xlink" width="1920" zoomAndPan="magnify" viewBox="0 0 1440 809.999993" height="1080" preserveAspectRatio="xMidYMid meet" version="1.0"><defs><clipPath id="6e365a7e05"><path d="M 514.429688 201.125 L 821.929688 201.125 L 821.929688 508.625 L 514.429688 508.625 Z M 514.429688 201.125 " clip-rule="nonzero"/></clipPath></defs><g clip-path="url(#6e365a7e05)"><path fill="#fff7ed" d="M 671.925781 283.394531 C 672.160156 285.539062 672.484375 287.667969 672.898438 289.785156 C 673.3125 291.902344 673.816406 294 674.40625 296.074219 C 675 298.148438 675.679688 300.195312 676.445312 302.214844 C 677.207031 304.230469 678.058594 306.210938 678.988281 308.15625 C 679.921875 310.101562 680.9375 312.003906 682.03125 313.863281 C 683.125 315.726562 684.292969 317.535156 685.539062 319.296875 C 686.789062 321.054688 688.105469 322.761719 689.5 324.410156 C 690.890625 326.058594 692.347656 327.648438 693.875 329.171875 C 695.398438 330.699219 696.984375 332.15625 698.636719 333.546875 C 700.285156 334.9375 701.988281 336.257812 703.75 337.503906 C 705.511719 338.75 707.320312 339.921875 709.179688 341.015625 C 711.039062 342.109375 712.941406 343.121094 714.886719 344.054688 C 716.832031 344.988281 718.816406 345.835938 720.832031 346.601562 C 722.847656 347.367188 724.894531 348.046875 726.96875 348.636719 C 729.046875 349.230469 731.140625 349.734375 733.257812 350.148438 C 735.375 350.5625 737.507812 350.886719 739.652344 351.121094 C 760.441406 353.398438 787.277344 354.871094 821.921875 354.871094 C 787.277344 354.871094 760.441406 356.34375 739.652344 358.621094 C 737.507812 358.855469 735.375 359.179688 733.257812 359.59375 C 731.140625 360.007812 729.046875 360.511719 726.96875 361.105469 C 724.894531 361.695312 722.847656 362.375 720.832031 363.140625 C 718.816406 363.902344 716.832031 364.753906 714.886719 365.6875 C 712.941406 366.617188 711.039062 367.632812 709.179688 368.726562 C 707.320312 369.820312 705.511719 370.988281 703.75 372.234375 C 701.988281 373.484375 700.285156 374.800781 698.636719 376.195312 C 696.984375 377.585938 695.398438 379.042969 693.875 380.570312 C 692.347656 382.09375 690.890625 383.683594 689.496094 385.332031 C 688.105469 386.980469 686.789062 388.683594 685.539062 390.445312 C 684.292969 392.207031 683.125 394.015625 682.03125 395.875 C 680.9375 397.734375 679.921875 399.636719 678.988281 401.582031 C 678.058594 403.527344 677.207031 405.511719 676.441406 407.527344 C 675.679688 409.546875 675 411.589844 674.40625 413.664062 C 673.816406 415.742188 673.3125 417.835938 672.898438 419.953125 C 672.484375 422.070312 672.160156 424.203125 671.925781 426.347656 C 669.648438 447.136719 668.175781 473.972656 668.175781 508.617188 C 668.175781 473.972656 666.703125 447.136719 664.425781 426.347656 C 664.191406 424.203125 663.867188 422.070312 663.453125 419.953125 C 663.039062 417.835938 662.535156 415.742188 661.941406 413.664062 C 661.351562 411.589844 660.671875 409.546875 659.90625 407.527344 C 659.140625 405.511719 658.292969 403.527344 657.359375 401.582031 C 656.425781 399.636719 655.414062 397.734375 654.320312 395.875 C 653.226562 394.015625 652.054688 392.207031 650.808594 390.445312 C 649.5625 388.683594 648.242188 386.980469 646.851562 385.332031 C 645.460938 383.683594 644.003906 382.09375 642.476562 380.570312 C 640.949219 379.042969 639.363281 377.585938 637.714844 376.195312 C 636.066406 374.800781 634.359375 373.484375 632.601562 372.238281 C 630.839844 370.988281 629.027344 369.820312 627.167969 368.726562 C 625.308594 367.632812 623.40625 366.617188 621.460938 365.6875 C 619.515625 364.753906 617.535156 363.902344 615.515625 363.140625 C 613.5 362.375 611.453125 361.695312 609.378906 361.105469 C 607.304688 360.511719 605.207031 360.007812 603.089844 359.59375 C 600.972656 359.179688 598.84375 358.855469 596.699219 358.621094 C 575.910156 356.34375 549.074219 354.871094 514.429688 354.871094 C 549.074219 354.871094 575.910156 353.398438 596.699219 351.121094 C 598.84375 350.886719 600.972656 350.5625 603.089844 350.148438 C 605.207031 349.734375 607.304688 349.230469 609.378906 348.636719 C 611.453125 348.046875 613.5 347.367188 615.515625 346.601562 C 617.535156 345.835938 619.515625 344.988281 621.460938 344.054688 C 623.40625 343.121094 625.308594 342.109375 627.167969 341.015625 C 629.027344 339.921875 630.839844 338.75 632.601562 337.503906 C 634.359375 336.257812 636.066406 334.9375 637.714844 333.546875 C 639.363281 332.15625 640.949219 330.699219 642.476562 329.171875 C 644.003906 327.644531 645.460938 326.058594 646.851562 324.410156 C 648.242188 322.761719 649.5625 321.054688 650.808594 319.296875 C 652.054688 317.535156 653.226562 315.726562 654.320312 313.863281 C 655.414062 312.003906 656.425781 310.101562 657.359375 308.15625 C 658.292969 306.210938 659.140625 304.230469 659.90625 302.214844 C 660.671875 300.195312 661.351562 298.148438 661.941406 296.074219 C 662.535156 294 663.039062 291.902344 663.453125 289.785156 C 663.867188 287.667969 664.191406 285.539062 664.425781 283.394531 C 666.703125 262.605469 668.175781 235.769531 668.175781 201.125 C 668.175781 235.769531 669.648438 262.605469 671.925781 283.394531 Z M 671.925781 283.394531 " fill-opacity="1" fill-rule="nonzero"/></g></svg>