<svg xmlns="http://www.w3.org/2000/svg" xmlns:xlink="http://www.w3.org/1999/xlink" width="1920" zoomAndPan="magnify" viewBox="0 0 1440 809.999993" height="1080" preserveAspectRatio="xMidYMid meet" version="1.0"><defs><clipPath id="fc7f049858"><path d="M 308.183594 40 L 853 40 L 853 635 L 308.183594 635 Z M 308.183594 40 " clip-rule="nonzero"/></clipPath><clipPath id="769efdb158"><path d="M 657 611 L 948 611 L 948 748.871094 L 657 748.871094 Z M 657 611 " clip-rule="nonzero"/></clipPath><clipPath id="64d5a50595"><path d="M 649 235 L 1033.433594 235 L 1033.433594 440 L 649 440 Z M 649 235 " clip-rule="nonzero"/></clipPath></defs><path fill="#fff7ed" d="M 799.722656 91.378906 L 799.722656 151.570312 C 799.722656 157.882812 804.851562 163.019531 811.171875 163.019531 C 817.496094 163.019531 822.625 157.882812 822.625 151.570312 L 822.625 91.378906 C 822.625 85.058594 817.496094 79.929688 811.171875 79.929688 C 804.851562 79.929688 799.722656 85.058594 799.722656 91.378906 Z M 799.722656 91.378906 " fill-opacity="1" fill-rule="evenodd"/><path fill="#fff7ed" d="M 952.378906 532.179688 L 952.378906 592.359375 C 952.378906 598.683594 957.507812 603.8125 963.828125 603.8125 C 970.148438 603.8125 975.28125 598.683594 975.28125 592.359375 L 975.28125 532.179688 C 975.28125 525.859375 970.148438 520.726562 963.828125 520.726562 C 957.507812 520.726562 952.378906 525.859375 952.378906 532.179688 Z M 952.378906 532.179688 " fill-opacity="1" fill-rule="evenodd"/><path fill="#fff7ed" d="M 453.824219 663.582031 L 453.824219 723.761719 C 453.824219 730.085938 458.957031 735.214844 465.277344 735.214844 C 471.597656 735.214844 476.726562 730.085938 476.726562 723.761719 L 476.726562 663.582031 C 476.726562 657.261719 471.597656 652.128906 465.277344 652.128906 C 458.957031 652.128906 453.824219 657.261719 453.824219 663.582031 Z M 453.824219 663.582031 " fill-opacity="1" fill-rule="evenodd"/><path fill="#fff7ed" d="M 841.265625 110.023438 L 781.078125 110.023438 C 774.757812 110.023438 769.625 115.152344 769.625 121.476562 C 769.625 127.796875 774.757812 132.925781 781.078125 132.925781 L 841.265625 132.925781 C 847.589844 132.925781 852.71875 127.796875 852.71875 121.476562 C 852.71875 115.152344 847.589844 110.023438 841.265625 110.023438 Z M 841.265625 110.023438 " fill-opacity="1" fill-rule="evenodd"/><path fill="#fff7ed" d="M 993.921875 550.824219 L 933.734375 550.824219 C 927.414062 550.824219 922.28125 555.953125 922.28125 562.273438 C 922.28125 568.585938 927.414062 573.726562 933.734375 573.726562 L 993.921875 573.726562 C 1000.246094 573.726562 1005.375 568.585938 1005.375 562.273438 C 1005.375 555.953125 1000.246094 550.824219 993.921875 550.824219 Z M 993.921875 550.824219 " fill-opacity="1" fill-rule="evenodd"/><path fill="#fff7ed" d="M 495.371094 682.222656 L 435.183594 682.222656 C 428.859375 682.222656 423.730469 687.355469 423.730469 693.675781 C 423.730469 699.988281 428.859375 705.128906 435.183594 705.128906 L 495.371094 705.128906 C 501.683594 705.128906 506.824219 699.988281 506.824219 693.675781 C 506.824219 687.355469 501.683594 682.222656 495.371094 682.222656 Z M 495.371094 682.222656 " fill-opacity="1" fill-rule="evenodd"/><g clip-path="url(#fc7f049858)"><path fill="#fff7ed" d="M 593.914062 61.460938 C 597.984375 58.4375 599.578125 53.101562 597.839844 48.339844 C 596.097656 43.574219 591.433594 40.527344 586.371094 40.839844 C 431.21875 50.523438 308.183594 179.601562 308.183594 337.191406 C 308.183594 501.078125 441.234375 634.128906 605.121094 634.128906 C 707.171875 634.128906 797.261719 582.542969 850.726562 504.03125 C 853.589844 499.832031 853.335938 494.253906 850.125 490.328125 C 846.902344 486.394531 841.480469 485.058594 836.800781 487.039062 C 807.308594 499.519531 774.878906 506.421875 740.84375 506.421875 C 604.65625 506.421875 494.089844 395.851562 494.089844 259.664062 C 494.089844 178.503906 533.359375 106.449219 593.914062 61.460938 Z M 550.644531 68.585938 C 501.570312 117.429688 471.183594 185.03125 471.183594 259.664062 C 471.183594 408.496094 592.015625 529.324219 740.84375 529.324219 C 764.214844 529.324219 786.894531 526.339844 808.523438 520.742188 C 758.359375 576.289062 685.785156 611.226562 605.121094 611.226562 C 453.878906 611.226562 331.089844 488.433594 331.089844 337.191406 C 331.089844 204.589844 425.480469 93.855469 550.660156 68.578125 Z M 550.644531 68.585938 " fill-opacity="1" fill-rule="evenodd"/></g><g clip-path="url(#769efdb158)"><path fill="#fff7ed" d="M 715.019531 691.171875 C 688.457031 691.90625 666.042969 709.402344 657.996094 733.449219 C 656.828125 736.941406 657.410156 740.789062 659.5625 743.773438 C 661.714844 746.765625 665.175781 748.535156 668.855469 748.535156 L 920.304688 748.535156 C 923.792969 748.535156 927.09375 746.941406 929.269531 744.207031 C 940.390625 730.207031 947.042969 712.496094 947.042969 693.242188 C 947.042969 647.976562 910.296875 611.226562 865.035156 611.226562 C 833.191406 611.226562 805.5625 629.410156 791.980469 655.960938 C 787.507812 655.101562 782.886719 654.648438 778.164062 654.648438 C 751.183594 654.648438 727.609375 669.34375 715.019531 691.171875 Z M 914.464844 725.632812 L 689.015625 725.632812 C 696.09375 718.480469 705.917969 714.050781 716.773438 714.050781 C 718.125 714.050781 719.453125 714.113281 720.765625 714.25 C 725.707031 714.753906 730.410156 712.007812 732.410156 707.464844 C 740.136719 689.859375 757.726562 677.550781 778.160156 677.550781 C 783.972656 677.550781 789.550781 678.542969 794.742188 680.371094 C 800.691406 682.46875 807.21875 679.355469 809.332031 673.414062 C 817.496094 650.527344 839.367188 634.128906 865.03125 634.128906 C 897.65625 634.128906 924.136719 660.621094 924.136719 693.242188 C 924.136719 705.195312 920.582031 716.328125 914.472656 725.632812 Z M 914.464844 725.632812 " fill-opacity="1" fill-rule="evenodd"/></g><g clip-path="url(#64d5a50595)"><path fill="#fff7ed" d="M 656.441406 432.6875 C 658.324219 436.710938 662.363281 439.277344 666.808594 439.277344 L 1020.574219 439.277344 C 1025.988281 439.277344 1030.667969 435.484375 1031.78125 430.183594 C 1032.875 424.984375 1033.445312 419.597656 1033.445312 414.078125 C 1033.445312 370.933594 998.421875 335.914062 955.277344 335.914062 C 948.101562 335.914062 941.15625 336.886719 934.542969 338.703125 C 923.941406 308.105469 894.851562 286.117188 860.675781 286.117188 C 851.359375 286.117188 842.429688 287.75 834.136719 290.742188 C 824.28125 258.863281 794.554688 235.667969 759.449219 235.667969 C 716.308594 235.667969 681.289062 270.695312 681.289062 313.828125 C 681.289062 320.96875 682.246094 327.875 684.039062 334.441406 C 662.976562 348.445312 649.082031 372.398438 649.082031 399.570312 C 649.082031 411.402344 651.722656 422.632812 656.441406 432.6875 Z M 674.585938 416.375 C 672.898438 411.074219 671.984375 405.425781 671.984375 399.570312 C 671.984375 377.773438 684.625 358.917969 702.964844 349.917969 C 708.40625 347.246094 710.828125 340.792969 708.476562 335.199219 C 705.710938 328.625 704.191406 321.402344 704.191406 313.828125 C 704.191406 283.332031 728.949219 258.574219 759.449219 258.574219 C 788.140625 258.574219 811.761719 280.484375 814.457031 308.46875 C 814.835938 312.402344 817.210938 315.859375 820.746094 317.625 C 824.28125 319.386719 828.480469 319.203125 831.847656 317.136719 C 840.246094 311.980469 850.117188 309.019531 860.675781 309.019531 C 888.234375 309.019531 911.105469 329.226562 915.257812 355.628906 C 915.824219 359.199219 918.039062 362.300781 921.246094 363.980469 C 924.445312 365.667969 928.253906 365.742188 931.511719 364.179688 C 938.71875 360.734375 946.773438 358.820312 955.277344 358.820312 C 985.777344 358.820312 1010.542969 383.578125 1010.542969 414.078125 C 1010.542969 414.847656 1010.527344 415.609375 1010.496094 416.375 C 1010.496094 416.375 674.59375 416.375 674.59375 416.375 Z M 674.585938 416.375 " fill-opacity="1" fill-rule="evenodd"/></g></svg>