<svg xmlns="http://www.w3.org/2000/svg" xmlns:xlink="http://www.w3.org/1999/xlink" width="1920" zoomAndPan="magnify" viewBox="0 0 1440 809.999993" height="1080" preserveAspectRatio="xMidYMid meet" version="1.0"><defs><clipPath id="b355919c8d"><path d="M 358 142 L 921 142 L 921 770.597656 L 358 770.597656 Z M 358 142 " clip-rule="nonzero"/></clipPath></defs><path fill="#fff7ed" d="M 597.597656 186.886719 C 643.15625 184.835938 678.433594 146.253906 676.386719 100.6875 C 674.34375 55.132812 635.753906 19.863281 590.199219 21.902344 C 544.636719 23.945312 509.363281 62.535156 511.410156 108.09375 C 513.449219 153.648438 552.035156 188.925781 597.597656 186.886719 Z M 597.597656 186.886719 " fill-opacity="1" fill-rule="nonzero"/><g clip-path="url(#b355919c8d)"><path fill="#fff7ed" d="M 722.386719 259.726562 L 892.242188 216.914062 C 912.496094 211.816406 924.777344 191.257812 919.671875 171.007812 C 914.566406 150.757812 894.023438 138.453125 873.761719 143.582031 L 386.851562 266.296875 C 366.597656 271.394531 354.316406 291.953125 359.421875 312.214844 C 363.742188 329.359375 379.148438 340.789062 396.066406 340.789062 C 399.121094 340.789062 402.234375 340.421875 405.332031 339.640625 L 564.914062 299.417969 L 597.222656 426.222656 C 600.316406 438.375 599.378906 451.433594 594.578125 463.011719 L 491.789062 710.898438 C 482.652344 732.941406 493.113281 758.230469 515.164062 767.375 C 520.574219 769.617188 526.179688 770.679688 531.699219 770.679688 C 548.648438 770.679688 564.742188 760.636719 571.640625 744.003906 L 674.421875 496.121094 C 675.328125 493.929688 675.796875 491.609375 676.59375 489.375 L 668.167969 725.90625 C 667.320312 749.769531 685.964844 769.792969 709.820312 770.644531 C 710.34375 770.664062 710.867188 770.671875 711.386719 770.671875 C 734.546875 770.671875 753.722656 752.320312 754.550781 728.984375 L 764.019531 463.179688 C 764.464844 450.5625 763.261719 437.953125 760.449219 425.660156 Z M 722.386719 259.726562 " fill-opacity="1" fill-rule="nonzero"/></g><path fill="#fff7ed" d="M 823.316406 263.710938 C 816.648438 267.050781 813.945312 275.160156 817.277344 281.832031 C 837.421875 322.121094 837.984375 373.957031 837.289062 394.367188 C 837.035156 401.8125 842.875 408.074219 850.328125 408.320312 C 850.484375 408.320312 850.640625 408.328125 850.796875 408.328125 C 858.042969 408.328125 864.039062 402.578125 864.285156 395.28125 C 865.046875 372.804688 864.355469 315.589844 841.441406 269.75 C 838.097656 263.078125 829.992188 260.386719 823.316406 263.710938 Z M 823.316406 263.710938 " fill-opacity="1" fill-rule="nonzero"/><path fill="#fff7ed" d="M 876.839844 250.1875 C 870.15625 253.5 867.429688 261.601562 870.742188 268.28125 C 880.285156 287.523438 886.730469 312.539062 889.382812 340.632812 C 890.042969 347.628906 895.925781 352.871094 902.8125 352.871094 C 903.238281 352.871094 903.667969 352.855469 904.097656 352.800781 C 911.523438 352.105469 916.976562 345.519531 916.273438 338.089844 C 913.308594 306.734375 905.933594 278.445312 894.941406 256.289062 C 891.628906 249.605469 883.523438 246.871094 876.839844 250.1875 Z M 876.839844 250.1875 " fill-opacity="1" fill-rule="nonzero"/><path fill="#fff7ed" d="M 448.363281 222.734375 C 450.199219 222.734375 452.070312 222.355469 453.859375 221.558594 C 460.667969 218.515625 463.726562 210.53125 460.6875 203.722656 C 452.027344 184.308594 446.636719 158.878906 445.09375 130.160156 C 444.695312 122.707031 438.3125 117.042969 430.878906 117.394531 C 423.429688 117.796875 417.714844 124.164062 418.113281 131.613281 C 419.835938 163.59375 426.023438 192.328125 436.023438 214.734375 C 438.265625 219.746094 443.191406 222.734375 448.363281 222.734375 Z M 448.363281 222.734375 " fill-opacity="1" fill-rule="nonzero"/><path fill="#fff7ed" d="M 394.519531 233.902344 C 396.363281 233.902344 398.246094 233.515625 400.046875 232.707031 C 406.847656 229.648438 409.882812 221.664062 406.828125 214.855469 C 398.730469 196.824219 393.660156 174.542969 391.769531 148.628906 C 391.226562 141.1875 384.757812 135.613281 377.316406 136.140625 C 369.878906 136.6875 364.289062 143.15625 364.828125 150.597656 C 366.953125 179.667969 372.796875 205.007812 382.191406 225.917969 C 384.4375 230.929688 389.363281 233.902344 394.519531 233.902344 Z M 394.519531 233.902344 " fill-opacity="1" fill-rule="nonzero"/></svg>