<svg xmlns="http://www.w3.org/2000/svg" xmlns:xlink="http://www.w3.org/1999/xlink" width="1920" zoomAndPan="magnify" viewBox="0 0 1440 809.999993" height="1080" preserveAspectRatio="xMidYMid meet" version="1.0"><defs><clipPath id="1878e5b08d"><path d="M 409.769531 104 L 824 104 L 824 685.90625 L 409.769531 685.90625 Z M 409.769531 104 " clip-rule="nonzero"/></clipPath></defs><g clip-path="url(#1878e5b08d)"><path fill="#fff7ed" d="M 750.046875 347.441406 L 552.578125 347.441406 L 519.777344 260.605469 C 510.449219 235.523438 523.316406 207.222656 548.402344 197.574219 L 590.535156 181.816406 C 602.75 177.316406 615.933594 177.636719 627.835938 183.101562 C 640.054688 188.566406 649.058594 198.214844 653.566406 210.4375 L 658.710938 223.625 C 665.785156 242.917969 687.015625 252.566406 706.304688 245.167969 C 725.285156 238.09375 734.925781 216.871094 727.851562 197.574219 L 723.03125 184.390625 C 711.449219 153.835938 688.617188 129.398438 658.386719 115.882812 C 628.480469 102.058594 595.035156 101.09375 564.484375 112.671875 L 522.351562 128.429688 C 491.800781 140.003906 467.359375 162.839844 453.855469 192.75 C 440.339844 222.660156 439.054688 256.105469 450.636719 286.65625 L 473.789062 348.40625 C 437.773438 352.910156 409.789062 383.457031 409.789062 420.445312 L 409.789062 612.4375 C 409.789062 652.640625 442.59375 685.441406 483.117188 685.441406 L 750.046875 685.441406 C 790.246094 685.441406 823.050781 652.640625 823.050781 612.4375 L 823.050781 420.445312 C 823.050781 380.242188 790.246094 347.441406 750.046875 347.441406 Z M 652.601562 587.355469 C 654.210938 593.464844 649.703125 599.253906 643.59375 599.253906 L 589.5625 599.253906 C 583.128906 599.253906 578.632812 593.464844 580.242188 587.355469 L 598.246094 516.925781 C 583.128906 510.167969 572.835938 495.054688 572.835938 477.363281 C 572.835938 453.242188 592.457031 433.628906 616.578125 433.628906 C 640.699219 433.628906 660.320312 453.242188 660.320312 477.363281 C 660.320312 495.054688 649.703125 510.488281 634.589844 517.246094 Z M 652.601562 587.355469 " fill-opacity="1" fill-rule="nonzero"/></g><path fill="#fff7ed" d="M 856.554688 282.070312 C 860.886719 282.070312 865.207031 281.160156 869.273438 279.324219 L 915.914062 258.328125 C 931.496094 251.308594 938.46875 232.90625 931.449219 217.296875 C 924.40625 201.703125 905.980469 194.761719 890.441406 201.765625 L 843.804688 222.761719 C 828.210938 229.796875 821.238281 248.183594 828.257812 263.777344 C 831.664062 271.332031 837.804688 277.109375 845.554688 280.046875 C 849.125 281.394531 852.839844 282.070312 856.554688 282.070312 Z M 856.554688 282.070312 " fill-opacity="1" fill-rule="nonzero"/><path fill="#fff7ed" d="M 858.414062 133.046875 C 857.089844 124.867188 852.644531 117.691406 845.90625 112.855469 C 832.027344 102.898438 812.617188 106.039062 802.621094 119.90625 L 772.722656 161.410156 L 772.714844 161.410156 C 766.269531 170.390625 765.089844 182.214844 769.621094 192.296875 C 771.828125 197.195312 775.328125 201.5 779.773438 204.703125 C 785.246094 208.644531 791.574219 210.542969 797.855469 210.542969 C 807.496094 210.542969 817.011719 206.066406 823.074219 197.667969 L 852.972656 156.164062 C 857.800781 149.425781 859.742188 141.214844 858.414062 133.046875 Z M 858.414062 133.046875 " fill-opacity="1" fill-rule="nonzero"/><path fill="#fff7ed" d="M 925.546875 316.554688 L 874.675781 311.4375 C 866.40625 310.542969 858.351562 313.023438 851.9375 318.265625 C 845.515625 323.511719 841.527344 330.941406 840.703125 339.183594 C 840.152344 344.617188 841.039062 350.082031 843.253906 354.996094 C 847.792969 365.078125 857.441406 372.035156 868.441406 373.148438 L 919.335938 378.285156 C 920.371094 378.394531 921.410156 378.441406 922.429688 378.441406 C 938.164062 378.441406 951.691406 366.492188 953.300781 350.523438 C 955.003906 333.5 942.558594 318.265625 925.546875 316.554688 Z M 925.546875 316.554688 " fill-opacity="1" fill-rule="nonzero"/></svg>